<?xml version="1.0" encoding="UTF-8"?>
<!DOCTYPE svg PUBLIC "-//W3C//DTD SVG 1.1//EN" "http://www.w3.org/Graphics/SVG/1.1/DTD/svg11.dtd">
<svg xmlns="http://www.w3.org/2000/svg" version="1.1" width="500px" height="185px" style="shape-rendering:geometricPrecision; text-rendering:geometricPrecision; image-rendering:optimizeQuality; fill-rule:evenodd; clip-rule:evenodd" xmlns:xlink="http://www.w3.org/1999/xlink">
<g><path style="opacity:0.92" fill="#1c245c" d="M 15.5,22.5 C 171.5,21.1667 327.5,21.1667 483.5,22.5C 482.167,70.5 482.167,118.5 483.5,166.5C 327.5,167.833 171.5,167.833 15.5,166.5C 16.8333,118.5 16.8333,70.5 15.5,22.5 Z"/></g>
<g><path style="opacity:0.5" fill="#777d9e" d="M 15.5,22.5 C 16.8333,70.5 16.8333,118.5 15.5,166.5C 14.1667,118.5 14.1667,70.5 15.5,22.5 Z"/></g>
<g><path style="opacity:0.333" fill="#7e83a2" d="M 483.5,22.5 C 484.833,70.5 484.833,118.5 483.5,166.5C 482.167,118.5 482.167,70.5 483.5,22.5 Z"/></g>
<g><path style="opacity:1" fill="#fdfdfd" d="M 25.5,32.5 C 174.833,32.5 324.167,32.5 473.5,32.5C 473.5,73.8333 473.5,115.167 473.5,156.5C 324.167,156.5 174.833,156.5 25.5,156.5C 25.5,115.167 25.5,73.8333 25.5,32.5 Z"/></g>
<g><path style="opacity:1" fill="#7f83a3" d="M 30.5,36.5 C 138.999,35.5005 247.665,35.1672 356.5,35.5C 356.5,74.8333 356.5,114.167 356.5,153.5C 247.665,153.833 138.999,153.499 30.5,152.5C 138.833,152.5 247.167,152.5 355.5,152.5C 355.5,113.833 355.5,75.1667 355.5,36.5C 247.167,36.5 138.833,36.5 30.5,36.5 Z"/></g>
<g><path style="opacity:1" fill="#18215a" d="M 30.5,36.5 C 138.833,36.5 247.167,36.5 355.5,36.5C 355.5,75.1667 355.5,113.833 355.5,152.5C 247.167,152.5 138.833,152.5 30.5,152.5C 30.5,113.833 30.5,75.1667 30.5,36.5 Z"/></g>
<g><path style="opacity:1" fill="#1c235c" d="M 406.5,73.5 C 413.508,73.3337 420.508,73.5004 427.5,74C 441.449,78.2978 446.283,87.4645 442,101.5C 439.235,107.931 434.402,111.764 427.5,113C 420.508,113.5 413.508,113.666 406.5,113.5C 406.5,100.167 406.5,86.8333 406.5,73.5 Z"/></g>
<g><path style="opacity:1" fill="#fefefe" d="M 63.5,74.5 C 73.8333,74.5 84.1667,74.5 94.5,74.5C 94.5,75.8333 94.5,77.1667 94.5,78.5C 89.9677,78.1818 85.6344,78.5151 81.5,79.5C 81.5,90.8333 81.5,102.167 81.5,113.5C 79.8333,113.5 78.1667,113.5 76.5,113.5C 76.5,102.167 76.5,90.8333 76.5,79.5C 72.3656,78.5151 68.0323,78.1818 63.5,78.5C 63.5,77.1667 63.5,75.8333 63.5,74.5 Z"/></g>
<g><path style="opacity:1" fill="#edeef2" d="M 106.5,74.5 C 113.175,74.3337 119.842,74.5004 126.5,75C 134.508,77.7076 137.341,83.2076 135,91.5C 133.108,95.0579 130.275,97.5579 126.5,99C 129.833,103.667 133.167,108.333 136.5,113C 134.098,113.814 131.765,113.647 129.5,112.5C 126.868,108.069 123.868,103.902 120.5,100C 117.854,99.5026 115.187,99.3359 112.5,99.5C 112.5,104.167 112.5,108.833 112.5,113.5C 110.5,113.5 108.5,113.5 106.5,113.5C 106.5,100.5 106.5,87.5 106.5,74.5 Z"/></g>
<g><path style="opacity:1" fill="#f1f2f5" d="M 160.5,74.5 C 162.5,74.5 164.5,74.5 166.5,74.5C 171.304,87.5784 176.304,100.578 181.5,113.5C 179.801,113.66 178.134,113.494 176.5,113C 175.438,110.209 174.105,107.543 172.5,105C 166.141,104.169 159.807,104.336 153.5,105.5C 152.305,107.751 151.305,110.085 150.5,112.5C 148.579,113.641 146.579,113.808 144.5,113C 149.933,100.2 155.266,87.3668 160.5,74.5 Z"/></g>
<g><path style="opacity:1" fill="#f6f7f9" d="M 213.5,92.5 C 213.5,93.8333 213.5,95.1667 213.5,96.5C 208.167,96.5 202.833,96.5 197.5,96.5C 197.5,102.167 197.5,107.833 197.5,113.5C 195.833,113.5 194.167,113.5 192.5,113.5C 192.5,100.5 192.5,87.5 192.5,74.5C 200.167,74.5 207.833,74.5 215.5,74.5C 215.5,76.1667 215.5,77.8333 215.5,79.5C 209.5,79.5 203.5,79.5 197.5,79.5C 197.5,83.8333 197.5,88.1667 197.5,92.5C 202.833,92.5 208.167,92.5 213.5,92.5 Z"/></g>
<g><path style="opacity:1" fill="#fafbfc" d="M 250.5,74.5 C 250.5,75.8333 250.5,77.1667 250.5,78.5C 244.642,78.1778 238.975,78.5111 233.5,79.5C 233.5,83.8333 233.5,88.1667 233.5,92.5C 238.833,92.5 244.167,92.5 249.5,92.5C 249.5,94.1667 249.5,95.8333 249.5,97.5C 244.167,97.5 238.833,97.5 233.5,97.5C 233.5,102.833 233.5,108.167 233.5,113.5C 231.833,113.5 230.167,113.5 228.5,113.5C 228.5,100.5 228.5,87.5 228.5,74.5C 235.833,74.5 243.167,74.5 250.5,74.5 Z"/></g>
<g><path style="opacity:1" fill="#f6f7f9" d="M 264.5,74.5 C 266.167,74.5 267.833,74.5 269.5,74.5C 269.5,87.5 269.5,100.5 269.5,113.5C 267.833,113.5 266.167,113.5 264.5,113.5C 264.5,100.5 264.5,87.5 264.5,74.5 Z"/></g>
<g><path style="opacity:1" fill="#ececf1" d="M 298.5,73.5 C 308.078,73.0395 315.578,76.7061 321,84.5C 321.49,85.7932 321.657,87.1266 321.5,88.5C 319.712,88.7852 318.045,88.4519 316.5,87.5C 310.449,79.1707 302.782,77.3374 293.5,82C 286.993,87.8739 285.827,94.7072 290,102.5C 297.061,109.568 304.895,110.401 313.5,105C 314.872,103.758 315.872,102.258 316.5,100.5C 318.5,99.1667 320.5,99.1667 322.5,100.5C 314.613,114.518 303.613,117.685 289.5,110C 280.167,99.3333 280.167,88.6667 289.5,78C 292.462,76.15 295.462,74.65 298.5,73.5 Z"/></g>
<g><path style="opacity:1" fill="#19225a" d="M 386.5,73.5 C 390.167,73.5 393.833,73.5 397.5,73.5C 397.5,86.8333 397.5,100.167 397.5,113.5C 393.833,113.5 390.167,113.5 386.5,113.5C 386.5,100.167 386.5,86.8333 386.5,73.5 Z"/></g>
<g><path style="opacity:1" fill="#bdbfd0" d="M 63.5,74.5 C 63.5,75.8333 63.5,77.1667 63.5,78.5C 68.0323,78.1818 72.3656,78.5151 76.5,79.5C 71.8333,79.5 67.1667,79.5 62.5,79.5C 62.2155,77.5853 62.5489,75.9187 63.5,74.5 Z"/></g>
<g><path style="opacity:1" fill="#bbbecf" d="M 94.5,74.5 C 95.4511,75.9187 95.7845,77.5853 95.5,79.5C 90.8333,79.5 86.1667,79.5 81.5,79.5C 85.6344,78.5151 89.9677,78.1818 94.5,78.5C 94.5,77.1667 94.5,75.8333 94.5,74.5 Z"/></g>
<g><path style="opacity:1" fill="#babdce" d="M 250.5,74.5 C 251.451,75.9187 251.784,77.5853 251.5,79.5C 245.5,79.5 239.5,79.5 233.5,79.5C 238.975,78.5111 244.642,78.1778 250.5,78.5C 250.5,77.1667 250.5,75.8333 250.5,74.5 Z"/></g>
<g><path style="opacity:1" fill="#1a235b" d="M 112.5,79.5 C 116.846,79.3343 121.179,79.501 125.5,80C 131.446,83.4098 132.113,87.7432 127.5,93C 122.599,94.3254 117.599,94.8254 112.5,94.5C 112.5,89.5 112.5,84.5 112.5,79.5 Z"/></g>
<g><path style="opacity:1" fill="#20275e" d="M 162.5,82.5 C 165.648,87.4623 168.315,92.7957 170.5,98.5C 165.88,99.4933 161.214,99.8266 156.5,99.5C 158.214,93.737 160.214,88.0703 162.5,82.5 Z"/></g>
<g><path style="opacity:1" fill="#f6f6f9" d="M 417.5,83.5 C 425.61,82.2016 430.61,85.3682 432.5,93C 431.138,101.369 426.138,104.869 417.5,103.5C 417.5,96.8333 417.5,90.1667 417.5,83.5 Z"/></g>
<g><path style="opacity:1" fill="#9397b2" d="M 213.5,92.5 C 214.451,93.9187 214.784,95.5853 214.5,97.5C 209.167,97.5 203.833,97.5 198.5,97.5C 198.821,103.026 198.488,108.36 197.5,113.5C 197.5,107.833 197.5,102.167 197.5,96.5C 202.833,96.5 208.167,96.5 213.5,96.5C 213.5,95.1667 213.5,93.8333 213.5,92.5 Z"/></g>
</svg>
